<?xml version="1.0" encoding="utf-8"?>
<!-- Generator: Adobe Illustrator 21.0.0, SVG Export Plug-In . SVG Version: 6.00 Build 0)  -->
<svg version="1.1" id="power-coders" xmlns="http://www.w3.org/2000/svg" xmlns:xlink="http://www.w3.org/1999/xlink" x="0px"
	 y="0px" width="553px" height="65px" viewBox="0 0 553 65" style="enable-background:new 0 0 553 65;" xml:space="preserve">
<style type="text/css">
	.st0{fill:#B23149;}
	.st1{fill:#343534;}
</style>
<path id="Fill-1" class="st0" d="M6.3,43c0-1.2-0.2-2.2-0.3-3.1c-0.2-0.9-0.5-1.7-0.9-2.4c-0.4-0.7-1-1.3-1.8-1.9
	c-0.7-0.6-1.7-1.1-2.8-1.7v-3.1c1.1-0.5,2-1.1,2.8-1.6C4,28.7,4.6,28.1,5,27.4C5.5,26.7,5.8,25.9,6,25c0.2-0.9,0.3-1.9,0.3-3.1
	l0.2-6.7c0.1-2.3,0.4-4.3,0.8-6.1c0.4-1.8,1.2-3.3,2.2-4.6c1-1.2,2.4-2.2,4.1-2.9c1.7-0.7,3.9-1,6.6-1c0.4,0,0.9,0,1.3,0
	c0.4,0,1,0,1.8,0.1c0.4,1.8,0.6,3.4,0.6,4.6c0,1.3-0.2,2.9-0.6,4.7h-2.1c-0.9,0-1.6,0.2-2.1,0.5c-0.5,0.3-0.9,0.8-1.2,1.4
	c-0.3,0.6-0.4,1.5-0.5,2.4c-0.1,1-0.1,2.2-0.1,3.5c0,2.4-0.1,4.4-0.3,6c-0.2,1.6-0.4,2.9-0.8,4c-0.4,1.1-0.8,2-1.3,2.6
	c-0.5,0.7-1.2,1.3-1.9,1.8c0.7,0.5,1.3,1.2,1.9,1.8c0.5,0.7,1,1.6,1.3,2.7c0.4,1.1,0.6,2.4,0.8,4c0.2,1.6,0.3,3.6,0.3,6
	c0,1.4,0,2.6,0.1,3.5c0.1,1,0.2,1.8,0.5,2.4c0.3,0.6,0.7,1.1,1.2,1.4c0.5,0.3,1.2,0.5,2.1,0.5h2.1c0.4,1.8,0.6,3.4,0.6,4.7
	c0,1.3-0.2,2.8-0.6,4.6c-0.8,0.1-1.4,0.1-1.8,0.1c-0.4,0-0.9,0-1.3,0c-2.7,0-4.9-0.3-6.6-1c-1.7-0.7-3.1-1.6-4.1-2.9
	c-1-1.2-1.8-2.8-2.2-4.6c-0.4-1.8-0.7-3.8-0.8-6.1L6.3,43"/>
<path id="Fill-2" class="st0" d="M532,54.9c0.9,0,1.6-0.2,2.1-0.5c0.5-0.3,0.9-0.8,1.2-1.4c0.3-0.6,0.4-1.5,0.5-2.4
	c0.1-1,0.1-2.2,0.1-3.5c0-2.4,0.1-4.4,0.3-6c0.2-1.6,0.4-3,0.8-4c0.4-1.1,0.8-2,1.3-2.7c0.5-0.7,1.2-1.3,1.9-1.8
	c-0.7-0.5-1.3-1.1-1.9-1.8c-0.5-0.7-1-1.6-1.3-2.6c-0.4-1.1-0.6-2.4-0.8-4c-0.2-1.6-0.3-3.6-0.3-6c0-1.4,0-2.6-0.1-3.5
	c-0.1-1-0.2-1.8-0.5-2.4c-0.3-0.6-0.7-1.1-1.2-1.4c-0.5-0.3-1.2-0.5-2.1-0.5h-2.1c-0.4-1.8-0.6-3.3-0.6-4.7c0-1.2,0.2-2.8,0.6-4.6
	c0.8-0.1,1.4-0.1,1.8-0.1c0.4,0,0.9,0,1.3,0c2.7,0,4.9,0.3,6.6,1c1.7,0.7,3.1,1.6,4.1,2.9c1,1.2,1.8,2.8,2.2,4.6
	c0.4,1.8,0.7,3.9,0.8,6.1l0.2,6.7c0,1.2,0.2,2.2,0.3,3.1c0.2,0.9,0.5,1.7,0.9,2.4c0.4,0.7,1,1.3,1.8,1.9c0.7,0.6,1.7,1.1,2.8,1.6V34
	c-1.1,0.5-2,1.1-2.8,1.7c-0.7,0.6-1.3,1.2-1.8,1.9c-0.4,0.7-0.8,1.5-0.9,2.4c-0.2,0.9-0.3,1.9-0.3,3.1l-0.2,6.8
	c-0.1,2.3-0.4,4.3-0.8,6.1c-0.4,1.8-1.2,3.3-2.2,4.6c-1,1.2-2.4,2.2-4.1,2.9c-1.7,0.7-3.9,1-6.6,1c-0.4,0-0.9,0-1.3,0
	c-0.4,0-1,0-1.8-0.1c-0.4-1.8-0.6-3.3-0.6-4.6c0-1.3,0.2-2.9,0.6-4.7H532"/>
<path id="Fill-3" class="st1" d="M49.2,31.2c0.2,0.1,0.6,0.2,1.1,0.2c0.5,0,1.1,0.1,1.7,0.1c1.9,0,3.5-0.6,4.7-1.7
	c1.2-1.1,1.8-2.8,1.8-5.1c0-1.3-0.2-2.5-0.6-3.4c-0.4-0.9-0.9-1.7-1.6-2.2c-0.7-0.6-1.5-0.9-2.3-1.2c-0.9-0.2-1.8-0.3-2.8-0.3
	c-0.3,0-0.6,0-0.9,0c-0.4,0-0.7,0-1.1,0.1V31.2z M37.6,8.6c1-0.1,2.6-0.3,4.7-0.6c2.1-0.2,4.8-0.4,8-0.4c2.4,0,4.8,0.2,7.2,0.7
	c2.4,0.4,4.6,1.3,6.5,2.5c1.9,1.2,3.5,3,4.7,5.2c1.2,2.2,1.8,5.1,1.8,8.7c0,3.2-0.5,5.8-1.4,7.9c-1,2.1-2.2,3.8-3.8,5
	c-1.6,1.2-3.4,2.1-5.4,2.7c-2,0.5-4.1,0.8-6.3,0.8c-0.8,0-1.7,0-2.6-0.1c-0.9-0.1-1.5-0.1-1.8-0.2v15.6c-1.2,0.2-2.2,0.4-3.1,0.5
	C45.1,57,44.3,57,43.5,57c-1.6,0-3.5-0.2-5.8-0.6V8.6z"/>
<path id="Fill-4" class="st1" d="M96.6,47.2c5.7,0,8.6-4.8,8.6-14.5c0-9.7-2.8-14.6-8.5-14.6c-5.8,0-8.7,4.9-8.7,14.6
	c0,4.9,0.7,8.5,2.1,10.9C91.5,46,93.7,47.2,96.6,47.2z M96.6,57.4c-3.7,0-6.8-0.6-9.5-1.8c-2.7-1.2-4.8-2.9-6.6-5.2
	c-1.7-2.2-3-4.8-3.8-7.8c-0.8-3-1.2-6.3-1.2-9.9c0-3.6,0.4-6.9,1.2-9.9c0.8-3.1,2.1-5.7,3.8-7.9c1.7-2.2,3.9-4,6.6-5.3
	c2.7-1.3,5.8-1.9,9.5-1.9c3.7,0,6.8,0.6,9.4,1.9c2.6,1.3,4.8,3,6.5,5.3c1.7,2.2,3,4.9,3.8,7.9c0.8,3.1,1.2,6.4,1.2,9.9
	c0,3.6-0.4,6.9-1.2,9.9c-0.8,3-2.1,5.6-3.8,7.8c-1.7,2.2-3.9,3.9-6.5,5.2C103.4,56.8,100.3,57.4,96.6,57.4z"/>
<path id="Fill-5" class="st1" d="M120.6,8.7c1.2-0.2,2.5-0.4,3.6-0.5c1.2-0.1,2.2-0.1,3.1-0.1c0.8,0,1.7,0,2.6,0.1
	c0.9,0.1,2,0.2,3.1,0.4l5.6,30.6c1.1-4.9,2.2-10,3.3-15.4c1.1-5.3,2.2-10.4,3.3-15.2c0.8-0.1,1.7-0.3,2.7-0.4c1-0.1,2-0.2,3-0.2
	c0.9,0,1.8,0.1,2.7,0.2c0.9,0.1,1.7,0.2,2.4,0.4l7,30.9l5.6-30.9c1.2-0.2,2.1-0.4,2.9-0.4c0.8-0.1,1.6-0.1,2.5-0.1
	c0.9,0,1.8,0,2.8,0.1c1,0.1,2.1,0.2,3.3,0.4l-11.5,47.8c-0.7,0.1-1.5,0.3-2.6,0.4c-1,0.1-2.2,0.2-3.4,0.2c-1.2,0-2.5-0.1-3.6-0.2
	c-1.2-0.2-2-0.3-2.4-0.4l-6.4-27.7l-6.8,27.7c-0.4,0.1-1.1,0.2-2.2,0.4c-1.1,0.2-2.3,0.2-3.5,0.2c-1.2,0-2.4-0.1-3.3-0.2
	c-1-0.1-1.8-0.3-2.5-0.4L120.6,8.7"/>
<path id="Fill-6" class="st1" d="M184.4,8.5h28.2c0.2,1,0.3,1.9,0.4,2.7c0.1,0.8,0.1,1.7,0.1,2.4c0,1.5-0.2,3.2-0.5,5.3h-16.4v7.4
	h12.9c0.4,2,0.6,3.7,0.6,5.2c0,1.6-0.2,3.3-0.6,5.2h-12.9v9.5H213c0.4,1.9,0.6,3.6,0.6,5.1c0,1.7-0.2,3.4-0.6,5.3h-28.7V8.5"/>
<path id="Fill-7" class="st1" d="M219.6,8.6c2.2-0.2,4.2-0.4,6.1-0.6c1.9-0.2,3.8-0.3,5.9-0.3c2.5,0,4.9,0.2,7.4,0.7
	c2.5,0.5,4.6,1.3,6.6,2.4c1.9,1.2,3.5,2.7,4.7,4.8c1.2,2,1.8,4.6,1.8,7.6c0,1.7-0.2,3.1-0.6,4.5c-0.4,1.3-0.9,2.5-1.5,3.5
	c-0.6,1-1.3,1.9-2,2.7c-0.7,0.8-1.5,1.4-2.2,1.9l10.4,20.6c-1.1,0.2-2.2,0.3-3.5,0.4c-1.3,0.1-2.4,0.1-3.4,0.1c-0.9,0-1.9,0-3.1-0.1
	c-1.2-0.1-2.2-0.2-3.1-0.4l-9.5-21.9l0.6-0.3c0.5-0.3,1.1-0.7,1.8-1.3c0.6-0.6,1.2-1.4,1.8-2.2c0.6-0.9,1-1.8,1.4-2.9
	c0.4-1.1,0.6-2.2,0.6-3.3c0-2.2-0.6-3.9-1.9-4.9c-1.2-1-2.8-1.5-4.6-1.5c-0.4,0-0.8,0-1.1,0.1c-0.3,0-0.5,0.1-0.6,0.1v38.3
	c-2.4,0.4-4.3,0.6-5.8,0.6c-1.7,0-3.6-0.2-6-0.6V8.6"/>
<path id="Fill-8" class="st0" d="M261.1,45.1c1-0.1,2-0.2,2.9-0.3c0.9-0.1,1.9-0.1,2.7-0.1c0.9,0,1.8,0,2.7,0.1
	c0.9,0.1,1.9,0.2,2.9,0.3c0.2,1,0.3,2,0.4,2.9c0.1,0.9,0.1,1.9,0.1,2.7c0,0.9,0,1.8-0.1,2.7c-0.1,0.9-0.2,1.9-0.4,2.9
	c-1,0.2-2,0.3-2.9,0.4c-0.9,0.1-1.9,0.1-2.7,0.1c-0.9,0-1.8,0-2.7-0.1c-0.9-0.1-1.9-0.2-2.9-0.4c-0.2-1-0.3-2-0.4-2.9
	c-0.1-0.9-0.1-1.9-0.1-2.7c0-0.9,0-1.8,0.1-2.7C260.8,47.1,260.9,46.1,261.1,45.1"/>
<path id="Fill-9" class="st1" d="M310.4,45.1c1.5,3.2,2.5,6.5,2.9,9.9c-1.3,0.5-2.5,0.9-3.6,1.2c-1.1,0.3-2.2,0.5-3.2,0.7
	c-1,0.2-2,0.3-3,0.3c-1,0.1-2,0.1-3.1,0.1c-3.8,0-7.1-0.6-10-1.8c-2.9-1.2-5.3-2.9-7.2-5.1c-1.9-2.2-3.4-4.8-4.4-7.8
	c-1-3-1.5-6.3-1.5-9.9c0-3.6,0.5-6.9,1.5-9.9c1-3.1,2.5-5.7,4.5-7.9c1.9-2.2,4.3-4,7.2-5.2c2.9-1.2,6.1-1.9,9.7-1.9
	c2.1,0,4.2,0.2,6.1,0.5c1.9,0.3,4.1,0.9,6.4,1.9c-0.1,1.8-0.4,3.6-1,5.3c-0.6,1.7-1.2,3.2-1.8,4.5c-0.9-0.3-1.7-0.6-2.4-0.8
	c-0.7-0.2-1.4-0.4-2.1-0.5c-0.7-0.1-1.3-0.2-2-0.3c-0.7-0.1-1.4-0.1-2.1-0.1c-3.6,0-6.4,1.2-8.4,3.6c-2,2.4-3,6.1-3,10.9
	c0,9.5,4,14.2,11.9,14.2c1.4,0,2.8-0.1,4-0.4C307,46.2,308.5,45.7,310.4,45.1"/>
<path id="Fill-10" class="st1" d="M335.7,47.2c5.7,0,8.6-4.8,8.6-14.5c0-9.7-2.8-14.6-8.5-14.6c-5.8,0-8.7,4.9-8.7,14.6
	c0,4.9,0.7,8.5,2.1,10.9C330.6,46,332.8,47.2,335.7,47.2z M335.7,57.4c-3.7,0-6.8-0.6-9.5-1.8c-2.7-1.2-4.8-2.9-6.6-5.2
	s-3-4.8-3.8-7.8c-0.8-3-1.2-6.3-1.2-9.9c0-3.6,0.4-6.9,1.2-9.9c0.8-3.1,2.1-5.7,3.8-7.9c1.7-2.2,3.9-4,6.6-5.3
	c2.7-1.3,5.8-1.9,9.5-1.9c3.7,0,6.8,0.6,9.4,1.9c2.6,1.3,4.8,3,6.5,5.3c1.7,2.2,3,4.9,3.8,7.9c0.8,3.1,1.2,6.4,1.2,9.9
	c0,3.6-0.4,6.9-1.2,9.9c-0.8,3-2.1,5.6-3.8,7.8c-1.7,2.2-3.9,3.9-6.5,5.2C342.5,56.8,339.4,57.4,335.7,57.4z"/>
<path id="Fill-11" class="st1" d="M375.4,46.9c0.3,0,0.7,0.1,1.1,0.1c0.4,0,0.8,0,1.3,0c1.7,0,3.4-0.2,4.9-0.6
	c1.5-0.4,2.9-1.2,4-2.2c1.1-1.1,2-2.5,2.6-4.4c0.6-1.8,1-4.2,1-7c0-2.8-0.3-5.2-1-7c-0.7-1.9-1.6-3.4-2.6-4.5
	c-1.1-1.1-2.4-1.9-3.8-2.3c-1.5-0.5-3-0.7-4.6-0.7c-0.9,0-1.5,0-1.9,0c-0.4,0-0.7,0-0.8,0V46.9z M363.5,8.6c0.7-0.1,1.5-0.2,2.5-0.3
	c1-0.1,2.1-0.2,3.3-0.3c1.2-0.1,2.4-0.2,3.7-0.2c1.3-0.1,2.5-0.1,3.7-0.1c8.4,0,14.8,2.1,19.2,6.3c4.4,4.2,6.6,10.5,6.6,18.8
	c0,8.5-2.2,14.7-6.7,18.6c-4.5,4-11.1,5.9-19.8,5.9c-2.2,0-4.4-0.1-6.5-0.3c-2.1-0.2-4.1-0.4-6.1-0.7V8.6z"/>
<path id="Fill-12" class="st1" d="M409.4,8.5h28.2c0.2,1,0.3,1.9,0.4,2.7c0.1,0.8,0.1,1.7,0.1,2.4c0,1.5-0.2,3.2-0.5,5.3h-16.4v7.4
	h12.9c0.4,2,0.6,3.7,0.6,5.2c0,1.6-0.2,3.3-0.6,5.2h-12.9v9.5H438c0.4,1.9,0.6,3.6,0.6,5.1c0,1.7-0.2,3.4-0.6,5.3h-28.7V8.5"/>
<path id="Fill-13" class="st1" d="M444.6,8.6c2.2-0.2,4.2-0.4,6.1-0.6c1.9-0.2,3.8-0.3,5.9-0.3c2.5,0,4.9,0.2,7.4,0.7
	c2.5,0.5,4.6,1.3,6.6,2.4c1.9,1.2,3.5,2.7,4.7,4.8c1.2,2,1.8,4.6,1.8,7.6c0,1.7-0.2,3.1-0.6,4.5c-0.4,1.3-0.9,2.5-1.5,3.5
	c-0.6,1-1.3,1.9-2,2.7c-0.7,0.8-1.5,1.4-2.2,1.9l10.4,20.6c-1.1,0.2-2.2,0.3-3.5,0.4c-1.3,0.1-2.4,0.1-3.4,0.1c-0.9,0-1.9,0-3.1-0.1
	c-1.2-0.1-2.2-0.2-3.1-0.4l-9.5-21.9l0.6-0.3c0.5-0.3,1.1-0.7,1.8-1.3c0.6-0.6,1.2-1.4,1.8-2.2c0.6-0.9,1-1.8,1.4-2.9
	c0.4-1.1,0.6-2.2,0.6-3.3c0-2.2-0.6-3.9-1.9-4.9c-1.2-1-2.8-1.5-4.6-1.5c-0.4,0-0.8,0-1.1,0.1c-0.3,0-0.5,0.1-0.6,0.1v38.3
	c-2.4,0.4-4.3,0.6-5.8,0.6c-1.7,0-3.6-0.2-6-0.6V8.6"/>
<path id="Fill-14" class="st1" d="M495.9,36.2c-1.6-0.6-3.1-1.3-4.4-2.1c-1.3-0.8-2.4-1.8-3.4-2.8c-0.9-1.1-1.7-2.4-2.2-3.8
	c-0.5-1.4-0.8-3.1-0.8-5c0-2.4,0.4-4.5,1.2-6.3c0.8-1.8,1.9-3.4,3.4-4.7c1.5-1.3,3.2-2.2,5.3-2.9c2.1-0.6,4.4-1,6.9-1
	c2.3,0,4.5,0.2,6.6,0.7c2.1,0.4,4.4,1.1,6.8,1.9c-0.2,1.4-0.5,3-1,4.7c-0.5,1.7-1.1,3.3-1.8,4.9c-1.2-0.5-2.5-1-4.1-1.5
	c-1.6-0.5-3.5-0.8-5.8-0.8c-0.7,0-1.4,0.1-2,0.2c-0.6,0.1-1.2,0.3-1.7,0.6c-0.5,0.3-0.9,0.7-1.2,1.2c-0.3,0.5-0.5,1.1-0.5,1.9
	c0,1.3,0.4,2.3,1.3,2.9c0.8,0.6,1.9,1.2,3,1.6l3.2,1.3c1.9,0.8,3.6,1.5,5.1,2.3c1.5,0.8,2.8,1.7,3.8,2.8c1.1,1.1,1.9,2.4,2.5,3.9
	c0.6,1.5,0.9,3.4,0.9,5.6c0,2.4-0.4,4.5-1.2,6.4c-0.8,1.9-2,3.5-3.6,4.9c-1.6,1.4-3.6,2.4-5.9,3.1c-2.3,0.7-5,1.1-8.1,1.1
	c-2.8,0-5.2-0.2-7.3-0.7c-2.1-0.4-4.4-1.1-6.9-2.1c0.2-1.6,0.5-3.2,0.9-5c0.4-1.8,1-3.6,1.6-5.4c4.1,1.8,7.7,2.7,10.7,2.7
	c2.3,0,4-0.3,5.3-1c1.3-0.7,1.9-1.9,1.9-3.6c0-0.7-0.1-1.3-0.4-1.8c-0.3-0.5-0.6-0.9-1.1-1.3c-0.4-0.4-0.9-0.7-1.5-0.9
	c-0.6-0.2-1.1-0.5-1.7-0.7L495.9,36.2"/>
</svg>
